<svg width="23" height="16" viewBox="0 0 23 16" fill="none" xmlns="http://www.w3.org/2000/svg">
<path d="M1.5 3C1.5 2.46957 1.71071 1.96086 2.08579 1.58579C2.46086 1.21071 2.96957 1 3.5 1H19.5C20.0304 1 20.5391 1.21071 20.9142 1.58579C21.2893 1.96086 21.5 2.46957 21.5 3V13C21.5 13.5304 21.2893 14.0391 20.9142 14.4142C20.5391 14.7893 20.0304 15 19.5 15H3.5C2.96957 15 2.46086 14.7893 2.08579 14.4142C1.71071 14.0391 1.5 13.5304 1.5 13V3Z" stroke="black" stroke-width="2" stroke-linecap="round" stroke-linejoin="round"/>
<path d="M11.5 11C13.1569 11 14.5 9.65685 14.5 8C14.5 6.34315 13.1569 5 11.5 5C9.84315 5 8.5 6.34315 8.5 8C8.5 9.65685 9.84315 11 11.5 11Z" stroke="black" stroke-width="2" stroke-linecap="round" stroke-linejoin="round"/>
<path d="M17.5 15C17.5 13.9391 17.9214 12.9217 18.6716 12.1716C19.4217 11.4214 20.4391 11 21.5 11M1.5 5C2.56087 5 3.57828 4.57857 4.32843 3.82843C5.07857 3.07828 5.5 2.06087 5.5 1L1.5 5Z" stroke="black" stroke-width="2" stroke-linecap="round" stroke-linejoin="round"/>
</svg>
